<mxfile host="Electron" modified="2024-03-08T11:28:54.920Z" agent="Mozilla/5.0 (Macintosh; Intel Mac OS X 10_15_7) AppleWebKit/537.36 (KHTML, like Gecko) draw.io/23.0.2 Chrome/120.0.6099.109 Electron/28.1.0 Safari/537.36" etag="Gq-CJ4knlrJrODqjlr3R" version="23.0.2" type="device">
  <diagram name="Página-1" id="qHBv7XhgYwlMJh5-6LgY">
    <mxGraphModel dx="1384" dy="1024" grid="0" gridSize="10" guides="1" tooltips="1" connect="1" arrows="1" fold="1" page="0" pageScale="1" pageWidth="827" pageHeight="1169" math="0" shadow="0">
      <root>
        <mxCell id="0" />
        <mxCell id="1" parent="0" />
        <mxCell id="Q2Qe7dnauCxAFhLFVxGw-5" value="" style="edgeStyle=orthogonalEdgeStyle;rounded=0;orthogonalLoop=1;jettySize=auto;html=1;" edge="1" parent="1" source="Q2Qe7dnauCxAFhLFVxGw-1" target="Q2Qe7dnauCxAFhLFVxGw-4">
          <mxGeometry relative="1" as="geometry" />
        </mxCell>
        <mxCell id="Q2Qe7dnauCxAFhLFVxGw-1" value="" style="shape=image;verticalLabelPosition=bottom;labelBackgroundColor=default;verticalAlign=top;aspect=fixed;imageAspect=0;image=https://cdn1.gnarususercontent.com.br/1/1310273/5bd80520-5d57-430b-8613-aabf41778ec6.png;" vertex="1" parent="1">
          <mxGeometry x="-3" y="49" width="619" height="207" as="geometry" />
        </mxCell>
        <mxCell id="Q2Qe7dnauCxAFhLFVxGw-11" value="" style="edgeStyle=orthogonalEdgeStyle;rounded=0;orthogonalLoop=1;jettySize=auto;html=1;" edge="1" parent="1" source="Q2Qe7dnauCxAFhLFVxGw-4" target="Q2Qe7dnauCxAFhLFVxGw-10">
          <mxGeometry relative="1" as="geometry" />
        </mxCell>
        <mxCell id="Q2Qe7dnauCxAFhLFVxGw-4" value="&lt;br&gt;ViewModel" style="whiteSpace=wrap;html=1;verticalAlign=top;labelBackgroundColor=default;rounded=1;" vertex="1" parent="1">
          <mxGeometry x="246.5" y="409.5" width="120" height="60" as="geometry" />
        </mxCell>
        <mxCell id="Q2Qe7dnauCxAFhLFVxGw-6" value="" style="edgeStyle=orthogonalEdgeStyle;rounded=0;orthogonalLoop=1;jettySize=auto;html=1;" edge="1" parent="1">
          <mxGeometry relative="1" as="geometry">
            <mxPoint x="521" y="249" as="sourcePoint" />
            <mxPoint x="521" y="403" as="targetPoint" />
          </mxGeometry>
        </mxCell>
        <mxCell id="Q2Qe7dnauCxAFhLFVxGw-7" value="&lt;br&gt;DAO" style="whiteSpace=wrap;html=1;verticalAlign=top;labelBackgroundColor=default;rounded=1;" vertex="1" parent="1">
          <mxGeometry x="463" y="409.5" width="120" height="60" as="geometry" />
        </mxCell>
        <mxCell id="Q2Qe7dnauCxAFhLFVxGw-8" value="" style="edgeStyle=orthogonalEdgeStyle;rounded=0;orthogonalLoop=1;jettySize=auto;html=1;" edge="1" parent="1">
          <mxGeometry relative="1" as="geometry">
            <mxPoint x="85" y="250" as="sourcePoint" />
            <mxPoint x="85" y="404" as="targetPoint" />
          </mxGeometry>
        </mxCell>
        <mxCell id="Q2Qe7dnauCxAFhLFVxGw-9" value="&lt;br&gt;Composable" style="whiteSpace=wrap;html=1;verticalAlign=top;labelBackgroundColor=default;rounded=1;" vertex="1" parent="1">
          <mxGeometry x="26" y="409.5" width="120" height="60" as="geometry" />
        </mxCell>
        <mxCell id="Q2Qe7dnauCxAFhLFVxGw-10" value="o intermediario pode ou não editar os dados antes de enviar ao Consumidor" style="whiteSpace=wrap;html=1;verticalAlign=top;labelBackgroundColor=default;rounded=1;" vertex="1" parent="1">
          <mxGeometry x="234.75" y="548" width="143.5" height="64.5" as="geometry" />
        </mxCell>
        <mxCell id="Q2Qe7dnauCxAFhLFVxGw-12" value="&lt;font style=&quot;font-size: 19px;&quot;&gt;Funcionamento do MutableStateFlow para Notificar mudanças&lt;br&gt;//é um fluxo observável detentor de estado que emite as atualizações de estado novas e atuais para os coletores&lt;/font&gt;" style="text;html=1;strokeColor=none;fillColor=none;align=center;verticalAlign=middle;whiteSpace=wrap;rounded=0;" vertex="1" parent="1">
          <mxGeometry x="14" y="-117" width="566" height="70" as="geometry" />
        </mxCell>
        <mxCell id="Q2Qe7dnauCxAFhLFVxGw-13" value="ou seja: Producer é o Produtor e Consumer são os inscritos" style="text;html=1;strokeColor=none;fillColor=none;align=center;verticalAlign=middle;whiteSpace=wrap;rounded=0;" vertex="1" parent="1">
          <mxGeometry x="30" y="-37" width="527" height="30" as="geometry" />
        </mxCell>
        <mxCell id="Q2Qe7dnauCxAFhLFVxGw-14" value="quando há uma mudança no Estado, os inscritos que nele matriculados recebem a atualização" style="text;html=1;strokeColor=none;fillColor=none;align=center;verticalAlign=middle;whiteSpace=wrap;rounded=0;" vertex="1" parent="1">
          <mxGeometry x="30" y="-7" width="519" height="30" as="geometry" />
        </mxCell>
      </root>
    </mxGraphModel>
  </diagram>
</mxfile>
